<svg width="82" height="82" viewBox="0 0 82 82" fill="none" xmlns="http://www.w3.org/2000/svg">
<g clip-path="url(#clip0)">
<circle cx="64" cy="18" r="18" fill="#E21313"/>
<path d="M73.3728 65.525C74.2119 64.321 74.7057 62.8595 74.7057 61.2839V59.8251C74.7057 55.7247 71.3697 52.3887 67.2693 52.3887C63.1689 52.3887 59.8328 55.7247 59.8328 59.8251V61.2839C59.8328 62.8595 60.3266 64.321 61.1658 65.525C58.2602 65.6116 55.7012 67.0971 54.1397 69.3312C52.5784 67.0971 50.0194 65.6117 47.1136 65.525C47.9528 64.321 48.4466 62.8595 48.4466 61.2839V59.8251C48.4466 55.7247 45.1106 52.3887 41.0102 52.3887C36.9097 52.3887 33.5737 55.7247 33.5737 59.8251V61.2839C33.5737 62.8595 34.0675 64.321 34.9067 65.525C31.9946 65.6117 29.4309 67.1034 27.8705 69.3455C26.3102 67.1034 23.7462 65.6119 20.8344 65.525C21.6735 64.321 22.1673 62.8595 22.1673 61.2839V59.8251C22.1673 55.7247 18.8313 52.3887 14.7309 52.3887C10.6305 52.3887 7.29443 55.7247 7.29443 59.8251V61.2839C7.29443 62.8595 7.78823 64.321 8.6274 65.525C3.84616 65.6676 0 69.5985 0 74.4135V80.3886C0 81.2727 0.717002 81.9897 1.60117 81.9897H80.3988C81.283 81.9897 82 81.2727 82 80.3886V74.4135C82 69.5985 78.1538 65.6676 73.3728 65.525ZM63.0352 59.8251C63.0352 57.4905 64.9346 55.591 67.2693 55.591C69.6039 55.591 71.5034 57.4905 71.5034 59.8251V61.2839C71.5034 63.6186 69.6039 65.5181 67.2693 65.5181C64.9346 65.5181 63.0352 63.6186 63.0352 61.2839V59.8251ZM36.776 59.8251C36.776 57.4905 38.6755 55.591 41.0102 55.591C43.3448 55.591 45.2443 57.4905 45.2443 59.8251V61.2839C45.2443 63.6186 43.3448 65.5181 41.0102 65.5181C38.6755 65.5181 36.776 63.6186 36.776 61.2839V59.8251ZM10.4966 59.8251C10.4966 57.4905 12.3961 55.591 14.7307 55.591C17.0654 55.591 18.9648 57.4905 18.9648 59.8251V61.2839C18.9648 63.6186 17.0654 65.5181 14.7307 65.5181C12.3961 65.5181 10.4966 63.6186 10.4966 61.2839V59.8251ZM26.2591 78.7874H3.20233V74.4135C3.20233 71.2744 5.75619 68.7204 8.89543 68.7204H20.5662C23.7053 68.7204 26.2593 71.2743 26.2593 74.4135V78.7874H26.2591ZM29.4818 74.4135C29.4818 71.2744 32.0356 68.7204 35.1749 68.7204H46.8456C49.9847 68.7204 52.5387 71.2743 52.5387 74.4135V78.7874H29.4819V74.4135H29.4818ZM78.7977 78.7874H55.7409V74.4135C55.7409 71.2744 58.2947 68.7204 61.434 68.7204H73.1047C76.2438 68.7204 78.7978 71.2743 78.7978 74.4135V78.7874H78.7977Z" fill="black"/>
<path d="M29.9418 43.0464C29.5207 43.0464 29.1076 43.2176 28.8098 43.5155C28.5119 43.8132 28.3406 44.2248 28.3406 44.6476C28.3406 45.0687 28.5118 45.4818 28.8098 45.7794C29.1076 46.0772 29.5207 46.2487 29.9418 46.2487C30.3629 46.2487 30.776 46.0774 31.0737 45.7794C31.3715 45.48 31.543 45.0687 31.543 44.6476C31.543 44.2263 31.3716 43.8132 31.0737 43.5155C30.776 43.2176 30.3629 43.0464 29.9418 43.0464Z" fill="black"/>
<path d="M10.2475 46.2483H23.5371C24.4213 46.2483 25.1383 45.5313 25.1383 44.6471C25.1383 43.7629 24.4213 43.0459 23.5371 43.0459H11.8486V31.7081C11.8486 28.7315 14.2702 26.3101 17.2466 26.3101H19.8942V33.7954C19.8942 34.4373 20.2775 35.0169 20.8678 35.2684C21.4583 35.5198 22.1419 35.3946 22.6048 34.95L28.3406 29.4388V34.2592C28.3406 35.1434 29.0576 35.8604 29.9418 35.8604C30.826 35.8604 31.543 35.1434 31.543 34.2592V29.4388L37.2788 34.95C37.583 35.2422 37.9827 35.3965 38.3886 35.3965C38.6001 35.3965 38.8134 35.3546 39.0158 35.2684C39.6063 35.0169 39.9894 34.4373 39.9894 33.7954V26.3101H42.637C45.6134 26.3101 48.035 28.7315 48.035 31.7081V43.0459H36.3465C35.4623 43.0459 34.7453 43.7629 34.7453 44.6471C34.7453 45.5313 35.4623 46.2483 36.3465 46.2483H49.6361C50.5203 46.2483 51.2373 45.5313 51.2373 44.6471V31.7081C51.2373 26.9659 47.3791 23.1077 42.637 23.1077H37.381C39.131 21.2658 40.2085 18.7787 40.2085 16.0434V12.363V10.66V10.2768C40.2085 4.61588 35.6029 0.0101318 29.9418 0.0101318C24.2807 0.0101318 19.6751 4.61588 19.6751 10.2768V10.66V12.363V16.0434C19.6751 18.7787 20.7526 21.2658 22.5026 23.1077H17.2466C12.5045 23.1077 8.6463 26.9659 8.6463 31.7081V44.6471C8.6463 45.5313 9.3633 46.2483 10.2475 46.2483ZM23.0965 26.3101H26.9747L23.0965 30.0363V26.3101ZM36.7871 30.0365L32.9089 26.3102H36.7871V30.0365ZM22.8775 10.277C22.8775 6.38165 26.0465 3.21262 29.9418 3.21262C33.5893 3.21262 36.6001 5.99128 36.9684 9.54299L33.6216 7.57676C32.9473 7.18063 32.0856 7.32954 31.5833 7.92886C30.0747 9.72921 27.8622 10.7618 25.5133 10.7618H22.8775V10.66V10.277ZM22.8775 16.0434V13.9641H25.5131C28.3514 13.9641 31.0472 12.891 33.0943 10.981L37.0063 13.2793V16.0434C37.0063 19.9387 33.8373 23.1077 29.942 23.1077C26.0466 23.1077 22.8775 19.9387 22.8775 16.0434Z" fill="black"/>
<path d="M51.6885 26.0606C51.9493 26.2262 52.2475 26.3102 52.547 26.3102C52.7786 26.3102 53.0111 26.26 53.2275 26.1584L58.6548 23.6097H78.5437C80.4382 23.6097 81.9797 22.0684 81.9797 20.1738V3.44607C81.9797 1.55141 80.4382 0.0101318 78.5437 0.0101318H54.3818C52.4873 0.0101318 50.9459 1.55141 50.9459 3.44607V24.7089C50.9459 25.2568 51.2261 25.7668 51.6885 26.0606ZM54.1482 3.44607C54.1482 3.31718 54.2529 3.21246 54.3818 3.21246H78.5437C78.6726 3.21246 78.7773 3.31718 78.7773 3.44607V20.1736C78.7773 20.3025 78.6726 20.4072 78.5437 20.4072H58.2976C58.0623 20.4072 57.8299 20.4591 57.617 20.559L54.1482 22.188V3.44607Z" fill="black"/>
<path d="M58.8323 10.0296H74.0933C74.9774 10.0296 75.6944 9.3126 75.6944 8.42843C75.6944 7.54427 74.9774 6.82727 74.0933 6.82727H58.8323C57.9481 6.82727 57.2311 7.54427 57.2311 8.42843C57.2311 9.3126 57.9479 10.0296 58.8323 10.0296Z" fill="black"/>
<path d="M58.8323 16.4343H69.3604C70.2446 16.4343 70.9616 15.7173 70.9616 14.8331C70.9616 13.9489 70.2446 13.2319 69.3604 13.2319H58.8323C57.9481 13.2319 57.2311 13.9489 57.2311 14.8331C57.2311 15.7173 57.9479 16.4343 58.8323 16.4343Z" fill="black"/>
</g>
<defs>
<clipPath id="clip0">
<rect width="82" height="82" fill="white"/>
</clipPath>
</defs>
</svg>
