<svg width="82" height="82" viewBox="0 0 82 82" fill="none" xmlns="http://www.w3.org/2000/svg">
<circle cx="64" cy="18" r="18" fill="#E21313"/>
<path d="M73.9922 7.04688H66.358V4.80469C66.358 2.15538 64.2026 0 61.5533 0C58.904 0 56.7486 2.15538 56.7486 4.80469V7.04688H29.8424V4.80469C29.8424 2.15538 27.687 0 25.0377 0C22.3884 0 20.233 2.15538 20.233 4.80469V7.10613C20.0969 7.0685 19.9542 7.04688 19.806 7.04688H13.4248C9.00927 7.04688 5.41697 10.6392 5.41697 15.0547V42.3346C5.41697 43.2191 6.13414 43.9361 7.01853 43.9361C7.90291 43.9361 8.62009 43.2191 8.62009 42.3346V23.543H66.358C67.2424 23.543 67.9596 22.8259 67.9596 21.9414C67.9596 21.0569 67.2424 20.3398 66.358 20.3398H8.62009V15.0547C8.62009 12.4054 10.7755 10.25 13.4248 10.25H19.806C19.9542 10.25 20.0969 10.2282 20.233 10.1907V12.252C20.233 14.9013 22.3884 17.0566 25.0377 17.0566C27.687 17.0566 29.8424 14.9013 29.8424 12.252V10.25H56.7486V12.252C56.7486 14.9013 58.904 17.0566 61.5533 17.0566C64.2026 17.0566 66.358 14.9013 66.358 12.252V10.25H73.9922C76.6415 10.25 78.7969 12.4054 78.7969 15.0547V75.9131C78.7969 77.5031 77.5033 78.7969 75.9131 78.7969C74.3229 78.7969 73.0293 77.5031 73.0293 75.9131V71.77C73.0293 70.8855 72.3121 70.1685 71.4278 70.1685H52.7982C51.9138 70.1685 51.1967 70.8855 51.1967 71.77C51.1967 72.6546 51.9138 73.3716 52.7982 73.3716H69.8262V75.9131C69.8262 76.9559 70.0901 77.938 70.5541 78.7969H6.08594C4.49639 78.7969 3.20312 77.5036 3.20312 75.9141V73.3716H39.0501C39.9345 73.3716 40.6517 72.6546 40.6517 71.77C40.6517 70.8855 39.9345 70.1685 39.0501 70.1685H23.0479C25.8465 67.7583 27.6236 64.1932 27.6236 60.2188C27.6236 52.9773 21.7322 47.0859 14.4908 47.0859C7.24931 47.0859 1.35796 52.9773 1.35796 60.2188C1.35796 64.1932 3.13506 67.7583 5.93363 70.1685H1.60156C0.71718 70.1685 0 70.8855 0 71.77V75.9141C0 79.2698 2.73018 82 6.08594 82H75.9131C79.2693 82 82 79.2695 82 75.9131V15.0547C82 10.6392 78.4077 7.04688 73.9922 7.04688ZM26.6393 12.252C26.6393 13.1351 25.9208 13.8535 25.0377 13.8535C24.1546 13.8535 23.4361 13.1351 23.4361 12.252V4.80469C23.4361 3.92159 24.1546 3.20312 25.0377 3.20312C25.9208 3.20312 26.6393 3.92159 26.6393 4.80469V12.252ZM63.1549 12.252C63.1549 13.1351 62.4364 13.8535 61.5533 13.8535C60.6702 13.8535 59.9518 13.1351 59.9518 12.252V4.80469C59.9518 3.92159 60.6702 3.20312 61.5533 3.20312C62.4364 3.20312 63.1549 3.92159 63.1549 4.80469V12.252ZM4.56109 60.2188C4.56109 54.7435 9.01552 50.2891 14.4908 50.2891C19.966 50.2891 24.4205 54.7435 24.4205 60.2188C24.4205 65.694 19.966 70.1484 14.4908 70.1484C9.01552 70.1484 4.56109 65.694 4.56109 60.2188Z" fill="black"/>
<path d="M75.0026 20.8091C74.7049 20.5112 74.2917 20.3398 73.8705 20.3398C73.4491 20.3398 73.0361 20.5112 72.7382 20.8091C72.4403 21.107 72.2689 21.5202 72.2689 21.9414C72.2689 22.3626 72.4401 22.7758 72.7382 23.0737C73.0362 23.3716 73.4491 23.543 73.8705 23.543C74.2917 23.543 74.7049 23.3716 75.0026 23.0737C75.3005 22.7758 75.472 22.3626 75.472 21.9414C75.472 21.5202 75.3007 21.107 75.0026 20.8091Z" fill="black"/>
<path d="M47.8305 70.637C47.5328 70.3391 47.1196 70.1693 46.6983 70.1693C46.2771 70.1693 45.8639 70.3391 45.566 70.637C45.2682 70.9365 45.0968 71.3481 45.0968 71.7693C45.0968 72.1921 45.268 72.6037 45.566 72.9032C45.8639 73.2011 46.2771 73.3708 46.6983 73.3708C47.1196 73.3708 47.5328 73.2011 47.8305 72.9032C48.1284 72.6037 48.2999 72.1905 48.2999 71.7693C48.2999 71.3481 48.1285 70.9365 47.8305 70.637Z" fill="black"/>
<path d="M36.2346 48.6875C32.8788 48.6875 30.1486 51.4177 30.1486 54.7734C30.1486 58.1292 32.8788 60.8594 36.2346 60.8594C39.5903 60.8594 42.3205 58.1292 42.3205 54.7734C42.3205 51.4177 39.5903 48.6875 36.2346 48.6875ZM36.2346 57.6562C34.645 57.6562 33.3517 56.363 33.3517 54.7734C33.3517 53.1839 34.645 51.8906 36.2346 51.8906C37.8241 51.8906 39.1174 53.1839 39.1174 54.7734C39.1174 56.363 37.8241 57.6562 36.2346 57.6562Z" fill="black"/>
<path d="M51.1824 48.6875C47.8267 48.6875 45.0965 51.4177 45.0965 54.7734C45.0965 58.1292 47.8267 60.8594 51.1824 60.8594C54.5382 60.8594 57.2684 58.1292 57.2684 54.7734C57.2684 51.4177 54.5382 48.6875 51.1824 48.6875ZM51.1824 57.6562C49.5929 57.6562 48.2996 56.363 48.2996 54.7734C48.2996 53.1839 49.5929 51.8906 51.1824 51.8906C52.772 51.8906 54.0652 53.1839 54.0652 54.7734C54.0652 56.363 52.772 57.6562 51.1824 57.6562Z" fill="black"/>
<path d="M66.1304 48.6875C62.7747 48.6875 60.0445 51.4177 60.0445 54.7734C60.0445 58.1292 62.7747 60.8594 66.1304 60.8594C69.4862 60.8594 72.2164 58.1292 72.2164 54.7734C72.2164 51.4177 69.4862 48.6875 66.1304 48.6875ZM66.1304 57.6562C64.5409 57.6562 63.2476 56.363 63.2476 54.7734C63.2476 53.1839 64.5409 51.8906 66.1304 51.8906C67.72 51.8906 69.0132 53.1839 69.0132 54.7734C69.0132 56.363 67.72 57.6562 66.1304 57.6562Z" fill="black"/>
<path d="M21.2867 32.0312C17.9309 32.0312 15.2008 34.7614 15.2008 38.1172C15.2008 41.4729 17.9309 44.2031 21.2867 44.2031C24.6425 44.2031 27.3726 41.4729 27.3726 38.1172C27.3726 34.7614 24.6425 32.0312 21.2867 32.0312ZM21.2867 41C19.6971 41 18.4039 39.7067 18.4039 38.1172C18.4039 36.5276 19.6971 35.2344 21.2867 35.2344C22.8762 35.2344 24.1695 36.5276 24.1695 38.1172C24.1695 39.7067 22.8762 41 21.2867 41Z" fill="black"/>
<path d="M51.1824 32.0312C47.8267 32.0312 45.0965 34.7614 45.0965 38.1172C45.0965 41.4729 47.8267 44.2031 51.1824 44.2031C54.5382 44.2031 57.2684 41.4729 57.2684 38.1172C57.2684 34.7614 54.5382 32.0312 51.1824 32.0312ZM51.1824 41C49.5929 41 48.2996 39.7067 48.2996 38.1172C48.2996 36.5276 49.5929 35.2344 51.1824 35.2344C52.772 35.2344 54.0652 36.5276 54.0652 38.1172C54.0652 39.7067 52.772 41 51.1824 41Z" fill="black"/>
<path d="M66.1304 32.0312C62.7747 32.0312 60.0445 34.7614 60.0445 38.1172C60.0445 41.4729 62.7747 44.2031 66.1304 44.2031C69.4862 44.2031 72.2164 41.4729 72.2164 38.1172C72.2164 34.7614 69.4862 32.0312 66.1304 32.0312ZM66.1304 41C64.5409 41 63.2476 39.7067 63.2476 38.1172C63.2476 36.5276 64.5409 35.2344 66.1304 35.2344C67.72 35.2344 69.0132 36.5276 69.0132 38.1172C69.0132 39.7067 67.72 41 66.1304 41Z" fill="black"/>
<path d="M36.2346 32.0312C32.8788 32.0312 30.1486 34.7614 30.1486 38.1172C30.1486 41.4729 32.8788 44.2031 36.2346 44.2031C39.5903 44.2031 42.3205 41.4729 42.3205 38.1172C42.3205 34.7614 39.5903 32.0312 36.2346 32.0312ZM36.2346 41C34.645 41 33.3517 39.7067 33.3517 38.1172C33.3517 36.5276 34.645 35.2344 36.2346 35.2344C37.8241 35.2344 39.1174 36.5276 39.1174 38.1172C39.1174 39.7067 37.8241 41 36.2346 41Z" fill="black"/>
<path d="M20.1963 56.3156C19.5708 55.6902 18.557 55.6902 17.9312 56.3156L12.7156 61.5314L10.9332 59.749C10.3076 59.1236 9.29385 59.1236 8.66812 59.749C8.04271 60.3745 8.04271 61.3886 8.66812 62.0141L11.5831 64.9288C11.8836 65.2291 12.2909 65.3979 12.7156 65.3979C13.1403 65.3979 13.5476 65.2291 13.8481 64.9288L20.1963 58.5805C20.8217 57.9551 20.8217 56.941 20.1963 56.3156Z" fill="black"/>
</svg>
