<svg width="82" height="82" viewBox="0 0 82 82" fill="none" xmlns="http://www.w3.org/2000/svg">
<g clip-path="url(#clip0)">
<circle cx="64" cy="18" r="18" fill="#E21313"/>
<path d="M72.599 48.3929C72.8786 45.5445 72.8279 43.6239 72.8173 43.3211C72.8098 32.7251 68.9923 24.9275 65.7898 20.2511C62.3008 15.1567 58.8111 12.5861 58.6647 12.4791C58.1511 12.105 57.4648 12.07 56.9155 12.3897C56.3662 12.7094 56.0584 13.3237 56.1304 13.9556C56.3393 15.7817 56.4157 20.1097 55.1951 23.5718C53.7124 19.3696 50.4079 16.0251 47.8223 13.4075C46.6261 12.197 45.5939 11.1516 45.0246 10.312C42.843 7.09638 41.6131 1.33076 41.6012 1.2732C41.4949 0.763328 41.1464 0.337288 40.6678 0.130836C40.1898 -0.0756152 39.6405 -0.0362017 39.1964 0.236564C38.9117 0.41111 32.2177 4.64211 32.2177 15.5352C32.2177 22.8305 28.6248 29.2586 26.1561 32.8133C24.5227 26.0912 19.4352 20.9092 19.1787 20.6515C18.7214 20.1917 18.032 20.0534 17.4326 20.3011C16.8333 20.5483 16.4417 21.1326 16.4417 21.7813C16.4417 30.8277 13.9442 34.7803 11.2998 38.965C8.57899 43.2704 5.76562 47.7229 5.76562 57.336C5.76562 65.3926 9.16582 71.9378 15.5996 76.2626C21.1832 80.0163 28.8219 82.0001 37.6899 82.0001C41.2809 82.0001 44.6235 81.6209 47.7122 80.8708C49.8799 81.6028 52.2009 82.0001 54.6133 82.0001C66.5349 82.0001 76.2344 72.3006 76.2344 60.379C76.2344 55.9484 74.8943 51.8256 72.599 48.3929ZM37.6899 78.7969C29.4606 78.7969 22.44 77.0014 17.3863 73.6038C11.8009 69.8488 8.96875 64.3754 8.96875 57.336C8.96875 48.65 11.4161 44.7769 14.008 40.676C16.3503 36.9699 18.7596 33.1562 19.4496 26.0442C21.2251 28.573 23.3021 32.3642 23.4447 36.3987C23.4272 36.4619 22.761 40.7567 22.761 40.7567C22.6264 41.6307 23.2258 42.4484 24.1004 42.5829C24.1823 42.596 24.2649 42.6023 24.3456 42.6023C25.1226 42.6023 25.8046 42.0355 25.9265 41.2434L26.4802 37.6449C27.9829 35.9308 35.4208 26.8688 35.4208 15.5352C35.4208 9.8059 37.5341 6.33814 39.1307 4.53638C39.7638 6.73165 40.8474 9.86095 42.3738 12.11C43.1083 13.193 44.2369 14.3353 45.5432 15.6585C48.7645 18.9192 52.774 22.9781 52.774 28.0274C52.774 28.6762 53.165 29.2605 53.7643 29.5076C54.3643 29.7554 55.0537 29.6165 55.511 29.1573C58.5746 26.0774 59.321 21.0087 59.4336 17.4928C60.5453 18.647 61.8885 20.2085 63.2229 22.1717C67.4639 28.4128 69.6142 35.5391 69.6142 43.3517C69.6142 43.373 69.6148 43.3955 69.6154 43.4168C69.6167 43.445 69.6329 43.9511 69.6098 44.8194C65.7191 41.0683 60.4308 38.7579 54.6133 38.7579C42.6917 38.7579 32.9922 48.4573 32.9922 60.379C32.9922 67.9557 36.9104 74.6335 42.8262 78.4954C41.1827 78.6943 39.471 78.7969 37.6899 78.7969ZM54.6133 78.7969C44.4577 78.7969 36.1953 70.5345 36.1953 60.379C36.1953 50.2234 44.4577 41.961 54.6133 41.961C64.7688 41.961 73.0312 50.2234 73.0312 60.379C73.0312 70.5345 64.7688 78.7969 54.6133 78.7969Z" fill="black"/>
<path d="M61.8209 57.8571L51.3407 57.8527L60.713 48.7132C61.3461 48.0957 61.3586 47.0816 60.7411 46.4485C60.1237 45.8153 59.1095 45.8022 58.4764 46.4197L46.2883 58.3063C45.8216 58.7611 45.6771 59.453 45.9223 60.0561C46.1682 60.6592 46.7544 61.054 47.4056 61.0546L58.1793 61.0583L52.403 67.3564L52.4975 67.0098C52.7302 66.1564 52.2272 65.2756 51.3739 65.0429C50.5205 64.8101 49.6403 65.3137 49.4076 66.1671L47.6058 72.7698C47.4557 73.3222 47.654 73.874 48.0137 74.3188C48.5273 74.9531 49.4238 74.7755 49.559 74.7404L56.2818 72.9712C57.1376 72.746 57.6481 71.8701 57.4235 71.0143C57.1983 70.1591 56.3212 69.6486 55.4666 69.8732L54.1147 70.2292L63.0002 60.541C63.4294 60.073 63.5414 59.3955 63.2861 58.8143C63.0309 58.2325 62.4559 57.8571 61.8209 57.8571Z" fill="black"/>
<path d="M23.9177 68.6157C18.9529 68.1008 15.4857 63.8329 15.4857 58.2368C15.4857 52.139 17.6967 48.2527 17.716 48.2189C18.1652 47.4569 17.9112 46.4753 17.1486 46.0262C16.3866 45.5776 15.405 45.8316 14.9559 46.5936C14.847 46.7794 12.2826 51.215 12.2826 58.2368C12.2826 61.6226 13.3499 64.8307 15.2881 67.2713C17.3357 69.8506 20.2836 71.4597 23.588 71.8019C23.6443 71.8076 23.6994 71.8107 23.7551 71.8107C24.5652 71.8107 25.2603 71.1976 25.346 70.3743C25.4367 69.494 24.798 68.707 23.9177 68.6157Z" fill="black"/>
<path d="M34.2059 38.0771C34.9478 38.5426 35.952 38.3067 36.4149 37.5679C38.0915 34.8853 39.4466 32.254 40.4413 29.744C41.2352 27.7358 41.7989 25.8089 42.118 24.0141C43.0914 25.117 43.869 26.3132 44.7268 27.5006C45.2542 28.2307 46.0624 28.6298 46.9195 28.1362C47.6865 27.6989 47.9543 26.7186 47.5151 25.9503C47.512 25.9453 47.5057 25.9359 47.4976 25.9215C46.9871 25.0563 45.0715 22.0246 41.8827 19.2844C41.4129 18.8822 40.731 18.7865 40.1704 19.0442C39.6049 19.3051 39.2383 19.8769 39.2383 20.5C39.2414 22.8798 38.644 25.5931 37.4641 28.5622C36.5394 30.8958 35.2725 33.3525 33.6985 35.8687C33.2293 36.6182 33.4583 37.6079 34.2059 38.0771Z" fill="black"/>
<path d="M32.3641 40.7179C32.0807 40.4889 31.7235 40.3625 31.3587 40.3625C30.872 40.3625 30.4184 40.5803 30.1125 40.9581C29.8435 41.2916 29.7202 41.7082 29.7653 42.1337C29.8116 42.5597 30.0199 42.9413 30.3527 43.2103C30.6361 43.4393 30.9934 43.5657 31.3568 43.5657C31.8436 43.5657 32.299 43.3498 32.6043 42.9713C32.8739 42.6385 32.9953 42.2206 32.9503 41.7946C32.9059 41.3698 32.6975 40.9875 32.3641 40.7179Z" fill="black"/>
<path d="M60.5359 30.1588C60.5359 30.1588 60.5391 30.1657 60.5503 30.1895C60.6304 30.3609 61.0483 31.2686 61.4581 32.4266C61.9423 33.7736 62.2576 35.098 62.3039 35.9695C62.3533 36.8153 63.0553 37.4766 63.9005 37.4766C63.9324 37.4766 63.9649 37.4766 63.9968 37.4734C64.8777 37.4221 65.5533 36.6633 65.5008 35.7805C65.3919 34.0538 64.812 32.2827 64.3859 31.1022C63.9555 29.9204 63.5451 29.0314 63.43 28.7881L63.425 28.7787C63.161 28.2244 62.5923 27.8672 61.9792 27.8672C61.739 27.8672 61.5081 27.9197 61.2886 28.0242C60.4928 28.4052 60.1549 29.3611 60.5341 30.1588H60.5359Z" fill="black"/>
</g>
<defs>
<clipPath id="clip0">
<rect width="82" height="82" fill="white"/>
</clipPath>
</defs>
</svg>
