<svg width="14" height="16" viewBox="0 0 14 16" fill="none" xmlns="http://www.w3.org/2000/svg">
<path d="M13.3184 6.31837C13.3184 2.82775 10.4906 0 7.00001 0C3.5094 0 0.681641 2.82775 0.681641 6.31837C0.681641 6.7298 0.720824 7.12816 0.795926 7.51673C0.795926 7.51673 0.805722 7.58531 0.838375 7.71265C0.936334 8.1502 1.08001 8.56816 1.26613 8.96653C1.92246 10.5273 3.46695 13.1624 7.00001 16C10.5331 13.1624 12.0776 10.5273 12.7372 8.9698C12.92 8.57143 13.0637 8.15347 13.1649 7.71592C13.1943 7.58857 13.2074 7.52 13.2074 7.52C13.2792 7.13143 13.3184 6.7298 13.3184 6.31837ZM7.00001 10.0139C4.44654 10.0139 3.37633 7.94367 3.37633 6.3902C3.37633 3.83673 5.44654 2.7698 7.00001 2.7698C8.55348 2.7698 10.6237 3.84 10.6237 6.39347C10.6237 7.94694 9.55348 10.0139 7.00001 10.0139Z" fill="white"/>
</svg>
