<svg width="28" height="28" viewBox="0 0 28 28" fill="none" xmlns="http://www.w3.org/2000/svg">
<g clip-path="url(#clip0)">
<path d="M26.119 14.4677L24.1219 12.4706C24.1574 12.344 24.1767 12.2108 24.1767 12.0731V9.00681C24.1767 8.71556 23.9406 8.47947 23.6494 8.47947H20.119L16.4009 0.797615C16.324 0.638622 16.1725 0.528723 15.9975 0.504835C15.8225 0.480999 15.6471 0.546284 15.5305 0.678858L11.772 4.94817L8.26953 3.67337C8.13817 3.62554 7.99315 3.63182 7.86633 3.69099C7.7396 3.7501 7.64147 3.8571 7.59369 3.98857L6.54496 6.86986C6.47256 7.06867 6.4445 7.27618 6.45932 7.48105L5.83094 7.80299C4.43406 8.5187 3.36909 9.72511 2.83231 11.2L0.839641 16.6749C0.450251 17.7446 0.500771 18.902 0.981866 19.9338C1.46296 20.9656 2.31704 21.7482 3.38681 22.1375L9.09435 24.2149C9.39551 24.3245 9.70327 24.3769 10.0056 24.3769C11.0002 24.3768 11.9361 23.8109 12.3835 22.8564L13.3923 20.7045V23.2381C13.3923 25.588 15.3042 27.5 17.6542 27.5H21.9224C24.2724 27.5 26.1844 25.588 26.1844 23.2381V21.0747C26.939 20.4389 27.4196 19.4877 27.4196 18.4261V17.6078C27.4197 16.4216 26.9578 15.3064 26.119 14.4677ZM19.7888 9.53431C19.7895 9.53431 19.7903 9.53421 19.7911 9.53421H23.122V10.4872H20.1798C19.8886 10.4872 19.6524 10.7233 19.6524 11.0146C19.6524 11.3058 19.8886 11.5419 20.1798 11.5419H23.122V12.0732C23.122 12.3058 22.9328 12.495 22.7003 12.495H16.8766C16.6439 12.495 16.4547 12.3058 16.4547 12.0732V9.53421H19.7869C19.7875 9.53421 19.7881 9.53431 19.7888 9.53431ZM15.7975 1.97174L18.9473 8.47952H15.9274C15.6362 8.47952 15.4001 8.71561 15.4001 9.00686V11.9321L14.6051 10.2271C14.6823 10.119 14.7456 10 14.7922 9.87181L15.841 6.99041C15.9406 6.71677 15.7995 6.41413 15.5258 6.31452L12.8362 5.33556L15.7975 1.97174ZM7.53589 7.23062L7.78807 6.53779L10.9986 7.70633C11.0581 7.72801 11.119 7.73829 11.1789 7.73829C11.3943 7.73829 11.5965 7.60529 11.6744 7.39114C11.7741 7.11745 11.633 6.81486 11.3592 6.71524L8.14872 5.54676L8.40427 4.84486L14.6695 7.1252L13.8011 9.51106C13.7626 9.61689 13.6851 9.70143 13.583 9.74905C13.4808 9.79667 13.3665 9.80178 13.2605 9.76313L7.78802 7.7713C7.68218 7.7328 7.59764 7.65529 7.55003 7.55319C7.50241 7.45105 7.4974 7.33656 7.53589 7.23062ZM13.3924 18.2198L11.4286 22.4087C11.0785 23.1555 10.23 23.5057 9.4551 23.2238L3.74757 21.1465C2.94253 20.8534 2.2998 20.2645 1.93778 19.4881C1.57576 18.7117 1.53768 17.8407 1.83073 17.0356L3.82335 11.5608C4.26885 10.3369 5.15262 9.33572 6.31182 8.74177L6.90624 8.43723C7.05322 8.5793 7.22945 8.69046 7.42731 8.76249L12.8998 10.7543C13.0646 10.8143 13.2353 10.8442 13.4056 10.8442C13.5089 10.8442 13.612 10.8329 13.7136 10.8111L14.5834 12.6765C14.6936 12.9129 14.785 13.1591 14.856 13.4112C13.9101 14.5298 13.3924 15.9393 13.3924 17.412V18.2198ZM26.365 18.4261C26.365 19.7542 25.2845 20.8347 23.9564 20.8347H23.0958C22.3637 20.8347 21.7682 20.2392 21.7682 19.5071C21.7682 18.7751 22.3637 18.1796 23.0958 18.1796H24.0447C24.3359 18.1796 24.572 17.9434 24.572 17.6522C24.572 17.361 24.3359 17.1249 24.0447 17.1249H23.0958C21.7822 17.1249 20.7135 18.1935 20.7135 19.5071C20.7135 20.8207 21.7822 21.8894 23.0958 21.8894H23.9564C24.3681 21.8894 24.7631 21.8168 25.1297 21.6844V23.2381C25.1297 25.0065 23.691 26.4453 21.9225 26.4453H17.6543C15.8858 26.4453 14.447 25.0065 14.447 23.2381V17.4118C14.447 16.1093 14.9351 14.8663 15.8213 13.9116L16.2763 13.4215C16.4598 13.5036 16.6629 13.5496 16.8766 13.5496H22.7003C22.9879 13.5496 23.2563 13.4666 23.4836 13.3237L25.3733 15.2134C26.0128 15.8529 26.365 16.7032 26.365 17.6077V18.4261Z" fill="white"/>
<path d="M18.3885 10.6418C18.2898 10.5432 18.1543 10.4873 18.0156 10.4873C17.8769 10.4873 17.7409 10.5432 17.6428 10.6418C17.5442 10.7399 17.4883 10.8754 17.4883 11.0146C17.4883 11.1533 17.5442 11.2894 17.6428 11.3875C17.7409 11.4856 17.8769 11.542 18.0156 11.542C18.1543 11.542 18.2898 11.4856 18.3885 11.3875C18.4865 11.2894 18.543 11.1533 18.543 11.0146C18.543 10.8754 18.4865 10.7399 18.3885 10.6418Z" fill="white"/>
<path d="M7.16241 20.1442L7.1469 20.1386C6.87274 20.0393 6.57057 20.1811 6.47148 20.4549C6.37229 20.7287 6.51393 21.0312 6.78773 21.1303L6.80323 21.1359C6.86256 21.1574 6.92315 21.1676 6.98274 21.1676C7.19848 21.1676 7.40098 21.0342 7.4786 20.8197C7.57785 20.5458 7.43626 20.2434 7.16241 20.1442Z" fill="white"/>
<path d="M5.28086 19.4594L4.46897 19.1639C4.19338 19.0636 3.97342 18.8619 3.84945 18.5962C3.72552 18.3304 3.71249 18.0323 3.81285 17.7567C3.91252 17.4831 3.7714 17.1804 3.49771 17.0808C3.22407 16.9811 2.92137 17.1223 2.82181 17.3959C2.62511 17.9363 2.65058 18.5209 2.89358 19.0419C3.13653 19.563 3.5679 19.9583 4.10827 20.1549L4.92016 20.4505C4.9797 20.4721 5.04055 20.4824 5.10046 20.4824C5.31588 20.4824 5.51812 20.3494 5.596 20.1353C5.69567 19.8616 5.55456 19.559 5.28086 19.4594Z" fill="white"/>
</g>
<defs>
<clipPath id="clip0">
<rect x="0.5" y="0.5" width="27" height="27" fill="white"/>
</clipPath>
</defs>
</svg>
