<svg width="28" height="28" viewBox="0 0 28 28" fill="none" xmlns="http://www.w3.org/2000/svg">
<g clip-path="url(#clip0)">
<path d="M25.0032 1.925C24.6229 1.26629 24.0088 0.795159 23.2741 0.598249C22.5393 0.401391 21.772 0.50243 21.1133 0.882751C20.4545 1.26307 19.9833 1.87717 19.7866 2.61186L19.6774 3.01934C19.5345 3.5528 19.5493 4.10335 19.7134 4.61714C19.459 4.5894 19.2033 4.60143 18.9555 4.65147C18.9127 4.6549 18.7789 4.69403 18.7789 4.69403C18.689 4.71913 18.6005 4.74924 18.5139 4.78442L15.4714 5.82228L13.6982 4.04903C13.7941 3.84922 13.848 3.62547 13.848 3.38938V3.11105C13.848 2.26777 13.1619 1.5818 12.3187 1.5818H11.6882C10.845 1.5818 10.159 2.26782 10.159 3.11105V3.38938C10.159 3.77339 10.3016 4.12455 10.5362 4.39339C10.4678 4.4543 10.415 4.53266 10.3856 4.62252C10.3285 4.79681 10.3661 4.98829 10.4848 5.12803L10.5446 5.19843L7.64253 3.21203C7.41039 3.05314 7.09498 3.10461 6.92507 3.32805L5.29774 2.11236C4.55587 1.55817 3.5015 1.71089 2.94737 2.45276C2.39313 3.19447 2.54584 4.24885 3.28771 4.80303L4.90809 6.0135L4.65918 6.34499C4.56942 6.46448 4.53462 6.61646 4.56336 6.76312C4.59215 6.90977 4.68175 7.03734 4.81 7.11412L7.42848 8.68165C7.67839 8.83126 8.00218 8.74994 8.15184 8.50003C8.30144 8.25018 8.22013 7.92634 7.97027 7.77673L5.85425 6.51005L7.46328 4.36729L12.3036 7.68044L13.2834 8.40327C13.2843 8.40395 13.2852 8.40459 13.2861 8.40527L15.6238 10.13L19.1482 13.69V17.138C19.1482 17.4292 19.3843 17.6654 19.6755 17.6654C19.9667 17.6654 20.2029 17.4292 20.2029 17.138V14.4679L20.8541 15.1192C20.9302 15.1953 21.0273 15.2454 21.1317 15.2646C21.2031 15.491 21.3281 15.704 21.5073 15.8832C21.5073 15.8833 21.5073 15.8833 21.5073 15.8833L21.7987 16.1747C22.0968 16.4728 22.4885 16.6219 22.8801 16.6219C23.2717 16.6219 23.6634 16.4728 23.9615 16.1747L24.5166 15.6196C25.1128 15.0233 25.1128 14.0531 24.5166 13.4569L24.2251 13.1654C23.9695 12.9099 23.6452 12.7642 23.3112 12.7277C23.3013 12.7159 23.2911 12.7043 23.28 12.6933L21.7848 11.198L23.0229 9.29501C23.397 8.71994 23.515 8.03592 23.3551 7.36872C23.2835 7.07003 23.1604 6.79376 22.9933 6.5487C23.2914 6.48806 23.5809 6.379 23.8519 6.22249C24.5107 5.84216 24.9819 5.22807 25.1787 4.49337L25.2879 4.0859C25.4846 3.35115 25.3836 2.58375 25.0032 1.925ZM5.53526 5.16563L3.91889 3.95812C3.78521 3.85824 3.69841 3.71232 3.67452 3.54721C3.65058 3.3821 3.69245 3.21752 3.79228 3.08384C3.91478 2.91983 4.10299 2.83324 4.29352 2.83324C4.42351 2.83324 4.55461 2.87358 4.66656 2.95722L6.28298 4.16473L5.53526 5.16563ZM20.4846 6.03786L21.4768 6.61072L20.276 7.06682L20.4846 6.03786ZM11.2136 3.38927V3.11094C11.2136 2.84927 11.4265 2.63633 11.6882 2.63633H12.3187C12.5804 2.63633 12.7933 2.84927 12.7933 3.11094V3.38927C12.7933 3.65094 12.5804 3.86388 12.3187 3.86388H11.6882C11.4265 3.86388 11.2136 3.65094 11.2136 3.38927ZM15.4555 8.6951L13.9628 7.59385L11.8453 5.10056L12.9868 4.82908L14.9579 6.80009C15.1001 6.94231 15.3109 6.99114 15.5011 6.92628L16.9068 6.44677L15.4555 8.6951ZM18.3286 11.3629L16.3444 9.35871C16.332 9.34626 16.3181 9.33551 16.3045 9.32433L18.2522 6.30728C18.4123 6.05927 18.637 5.87755 18.8904 5.77013L19.0852 5.70368C19.2153 5.66956 19.3502 5.6539 19.4856 5.6577L18.3286 11.3629ZM22.808 13.9111C22.8976 13.8215 23.0168 13.7721 23.1435 13.7721C23.2703 13.7721 23.3895 13.8215 23.4791 13.9111L23.7706 14.2025C23.8602 14.2921 23.9096 14.4114 23.9096 14.5381C23.9096 14.6649 23.8602 14.7841 23.7706 14.8737L23.2155 15.4288C23.1259 15.5185 23.0067 15.5678 22.8799 15.5678C22.7532 15.5678 22.6339 15.5185 22.5443 15.4288L22.2529 15.1375C22.0678 14.9524 22.0678 14.6512 22.2529 14.4662L22.808 13.9111ZM22.1613 13.066L21.2268 14.0005L20.4601 13.2337L21.1967 12.1015L22.1613 13.066ZM22.1387 8.71973L19.59 12.6372L19.2217 12.2652L20.0281 8.2891L22.2739 7.43612C22.2959 7.49381 22.3147 7.55313 22.3293 7.61431C22.421 7.99721 22.3533 8.38977 22.1387 8.71973ZM24.269 3.81289L24.1598 4.22042C23.9039 5.17534 22.9187 5.74408 21.9639 5.48821C21.5013 5.36423 21.1147 5.06755 20.8752 4.65279C20.6357 4.23803 20.5721 3.75488 20.6961 3.29229L20.8053 2.88482C20.9292 2.42223 21.2259 2.03558 21.6407 1.79611C22.0554 1.55659 22.5386 1.49305 23.0012 1.61703C23.4638 1.741 23.8504 2.03769 24.0899 2.45239C24.3294 2.8671 24.3929 3.35025 24.269 3.81289Z" fill="white"/>
<path d="M9.77106 8.87375C9.67302 8.77566 9.5375 8.71924 9.39828 8.71924C9.25959 8.71924 9.12406 8.77566 9.02544 8.87375C8.92736 8.97184 8.87146 9.10789 8.87146 9.24658C8.87146 9.38528 8.92736 9.52133 9.02544 9.61942C9.12406 9.7175 9.25959 9.77393 9.39828 9.77393C9.5375 9.77393 9.67302 9.7175 9.77106 9.61942C9.86967 9.52133 9.9261 9.38528 9.9261 9.24658C9.9261 9.10789 9.86967 8.97184 9.77106 8.87375Z" fill="white"/>
<path d="M20.0484 18.7429C19.9503 18.6448 19.8142 18.5884 19.6755 18.5884C19.5368 18.5884 19.4008 18.6448 19.3027 18.7429C19.2047 18.841 19.1482 18.977 19.1482 19.1157C19.1482 19.2544 19.2046 19.3905 19.3027 19.4885C19.4008 19.5866 19.5368 19.6431 19.6755 19.6431C19.8142 19.6431 19.9503 19.5866 20.0484 19.4885C20.1464 19.3905 20.2029 19.2544 20.2029 19.1157C20.2029 18.977 20.1464 18.841 20.0484 18.7429Z" fill="white"/>
<path d="M20.2027 24.5573V21.304C20.2027 21.0128 19.9666 20.7767 19.6754 20.7767C19.3842 20.7767 19.148 21.0128 19.148 21.304V24.3362H19.1473H16.8805V16.9272C16.8805 16.8448 16.8612 16.7635 16.8241 16.6899L14.8365 12.7451C14.834 12.7401 14.831 12.7356 14.8283 12.7307C14.8237 12.7224 14.8192 12.7141 14.8142 12.7059C14.809 12.6974 14.8034 12.6894 14.7977 12.6813C14.7947 12.6769 14.7921 12.6724 14.789 12.6681L13.7708 11.2963C13.7295 11.2407 13.6777 11.1937 13.6182 11.1581L11.3945 9.8269C11.1445 9.67734 10.8208 9.7586 10.6712 10.0085C10.5216 10.2584 10.6029 10.5822 10.8527 10.7318L12.9864 12.0091L13.9149 13.2601L15.8258 17.0525V24.8635V26.1819C15.8258 26.2722 15.835 26.3603 15.8523 26.4456H12.7161C12.4249 26.4456 12.1888 26.6817 12.1888 26.9729C12.1888 27.2641 12.4249 27.5002 12.7161 27.5002H21.2567C21.5479 27.5002 21.784 27.2641 21.784 26.9729C21.7841 25.8942 21.1326 24.9652 20.2027 24.5573ZM18.6574 26.4456H17.1442C16.9988 26.4456 16.8805 26.3273 16.8805 26.1819V25.3909H19.1474C19.8349 25.3909 20.4213 25.8317 20.639 26.4456H18.6574Z" fill="white"/>
</g>
<defs>
<clipPath id="clip0">
<rect x="0.5" y="0.5" width="27" height="27" fill="white"/>
</clipPath>
</defs>
</svg>
