<svg width="97" height="26" viewBox="0 0 97 26" fill="none" xmlns="http://www.w3.org/2000/svg">
<path fill-rule="evenodd" clip-rule="evenodd" d="M90.7171 12.744L84.4342 12.744L84.4342 14.959L84.4342 17.174L87.9889 17.174C89.944 17.174 91.5436 17.2927 91.5436 17.438C91.5436 17.5829 91.1477 18.2562 90.6638 18.9336C87.8698 22.8457 80.4836 22.3371 77.344 18.0161C74.3371 13.8777 75.6733 7.85199 80.0975 5.60156C83.4442 3.89956 89.0189 4.70716 91.0895 7.19459C91.6267 7.84048 91.8559 7.74656 93.3853 6.25765C95.0156 4.67083 95.0534 4.56893 94.3144 3.7547C92.0741 1.28676 86.5235 -0.428968 82.4702 0.094212C78.0185 0.66878 74.1283 3.50618 72.1106 7.64954C71.3472 9.21687 71.1166 9.47603 71.3219 8.53554C71.481 7.80459 72.1972 6.2922 72.913 5.17407C73.6289 4.05639 74.2145 2.61133 74.2145 1.96234C74.2145 0.843323 74.1016 0.783074 72.003 0.783074L69.7912 0.783074L69.6703 8.82349L69.549 16.8643L67.0705 13.1427C65.7073 11.0961 63.3323 7.4781 61.7931 5.1023L58.9947 0.783074L56.6002 0.783074L54.2052 0.783074L54.3234 13.0763L54.4416 25.3695L56.7646 25.5028L59.0871 25.6366L59.2084 17.4416L59.3293 9.24611L64.6231 17.4185L69.9169 25.591L72.0657 25.591L74.2145 25.591L74.2145 23.7915L74.2145 21.992L76.1376 23.3689C80.9839 26.8389 88.2848 26.8686 92.4473 23.4353C94.6024 21.6576 96.4432 18.1211 96.7485 15.1708L97 12.744L90.7171 12.744ZM51.3313 0.783074L48.8874 0.783074L48.8874 11.2998L48.8874 21.8162L45.9992 17.4797C44.4107 15.0946 43.1111 12.9438 43.1111 12.7006C43.1111 12.4574 44.3108 10.4675 45.7771 8.27816C47.9165 5.08415 48.4431 3.95095 48.4431 2.54045C48.4431 0.839778 48.8874 0.783074 46.9439 0.783073C45.0128 0.885995 45.5927 0.558592 43.1017 4.34123C41.8132 6.29795 40.5903 8.00306 40.3846 8.12975C40.1789 8.25645 38.9077 6.65545 37.5591 4.57159L35.1077 0.783073L32.391 0.783073L29.6739 0.783073L31.5201 2.56924C33.3477 4.33769 35.1081 6.81626 35.1113 7.62562C35.1121 7.85598 34.523 7.11662 33.8014 5.98254C30.4728 0.749851 23.6323 -1.36768 17.8444 1.04355C15.4494 2.04119 13.3371 3.80211 13.6277 4.55786C14.0822 5.73845 13.3793 5.24406 12.6763 3.88849C11.7188 2.04207 9.26341 0.94831 5.25107 0.581508C-0.481743 0.0569985 0.010582 -1.12979 0.0105818 13.2167L0.0105817 25.591L3.89851 25.5803C8.61246 25.567 11.4464 24.9685 12.8016 23.6994C13.7867 22.777 13.8547 22.7717 15.0233 23.5288C18.877 26.0264 23.6421 26.6887 27.4127 25.2503C29.2172 24.5619 29.6579 24.5096 29.4664 25.0062C29.2696 25.5183 29.7184 25.6131 31.8294 25.5041L34.435 25.3695L37.1823 21.2336C38.693 18.9588 40.0123 17.015 40.1136 16.914C40.2149 16.8125 41.5808 18.7227 43.1484 21.1583L45.9992 25.5865L49.8872 25.5887L53.7751 25.591L53.7751 13.187L53.7751 0.783074L51.3313 0.783074ZM36.654 14.2684C36.0395 15.0786 36.0013 15.0396 35.9955 13.6039C35.9924 12.7657 35.8755 11.5812 35.7355 10.972L35.4818 9.86453L36.3985 10.972C37.48 12.2789 37.5435 13.0962 36.654 14.2684ZM30.1716 17.0632C28.484 20.539 24.5188 22.2534 20.6006 21.2013C18.5411 20.6484 15.118 17.5581 15.118 16.2512C15.118 15.2496 12.5964 12.301 11.7392 12.301C11.398 12.301 11.1189 12.1017 11.1189 11.858C11.1189 11.0575 12.1591 11.3942 13.4273 12.6054L14.6736 13.7957L14.6736 12.5912C14.6736 11.015 15.7982 8.37252 17.0277 7.05992C18.5727 5.40975 20.2118 4.77005 22.8938 4.77005C24.2624 4.77005 25.9215 5.05003 26.5818 5.39247C30.6421 7.49892 32.2608 12.7609 30.1716 17.0632ZM9.06879 20.5461C8.25699 20.8841 6.88667 21.161 6.02332 21.161L4.45393 21.161L4.45393 17.8385L4.45393 14.516L5.98022 14.516C8.32497 14.516 9.76729 15.2558 10.4142 16.7904C11.2189 18.6979 10.8177 19.8174 9.06879 20.5461ZM8.56403 9.1646C8.13657 9.686 7.03641 10.2327 6.12019 10.3789L4.45393 10.6451L4.45393 7.90338L4.45393 5.1621L6.33213 5.29855C7.81621 5.40575 8.3272 5.66669 8.76931 6.54205C9.49091 7.97072 9.48513 8.04071 8.56403 9.1646Z" fill="#E21313"/>
</svg>
