<svg width="82" height="82" viewBox="0 0 82 82" fill="none" xmlns="http://www.w3.org/2000/svg">
<g clip-path="url(#clip0)">
<circle cx="64" cy="18" r="18" fill="#E21313"/>
<path d="M66.9756 2.42316C64.3607 0.86068 60.8715 0 57.1506 0C54.6248 0 52.2502 0.98368 50.4638 2.77006C49.6946 3.53929 49.0618 4.44017 48.5978 5.41921L16.4589 3.87338C16.319 3.86249 16.1807 3.85704 16.0331 3.85656C14.5361 3.85704 13.1291 4.44001 12.0711 5.49816C11.0127 6.55664 10.4297 7.96393 10.4297 9.46059C10.4297 12.5505 12.9435 15.0643 16.0288 15.0643C16.1676 15.0635 16.3073 15.0595 16.4565 15.0481L48.5927 13.5025C50.1323 16.7887 53.4315 18.9213 57.1506 18.9213C62.1076 18.9213 66.6151 17.3734 69.2078 14.7807C70.7529 13.2355 71.5698 11.3959 71.5703 9.46059C71.5703 6.69373 69.9386 4.19449 66.9756 2.42316ZM66.9429 12.5157C64.9376 14.521 61.2769 15.7182 57.1506 15.7182C54.4092 15.7182 52.0136 13.9685 51.1893 11.3642C50.9777 10.696 50.3581 10.246 49.663 10.246C49.6372 10.246 49.6114 10.2466 49.5855 10.2479L16.2794 11.85C16.2627 11.8508 16.2461 11.8517 16.2294 11.8532C16.1586 11.8588 16.0981 11.8617 16.0334 11.8613C14.7095 11.8613 13.6327 10.7844 13.6327 9.46059C13.6328 8.81932 13.8827 8.2165 14.3362 7.76293C14.7895 7.30953 15.3926 7.05985 16.0289 7.05953C16.0957 7.05969 16.1594 7.06241 16.2237 7.0677C16.2422 7.0693 16.2608 7.07042 16.2796 7.07138L49.586 8.67358C50.3094 8.70802 50.9689 8.25141 51.1891 7.55954C51.4899 6.61445 52.0223 5.74128 52.7287 5.03499C53.91 3.85368 55.4805 3.20312 57.1506 3.20312C60.3014 3.20312 63.2069 3.90269 65.3322 5.17257C67.2893 6.34267 68.3672 7.86543 68.3672 9.46027C68.367 10.5276 67.8744 11.5841 66.9429 12.5157Z" fill="black"/>
<path d="M64.3248 19.4831C64.1873 19.4842 64.0465 19.4879 63.8969 19.4992L31.7598 21.0451C30.2442 17.821 27.0111 15.6912 23.3676 15.6291C23.3629 15.6291 23.3585 15.6295 23.3538 15.6295C23.3492 15.6295 23.3448 15.6289 23.3402 15.6289H13.6777C12.7931 15.6289 12.0761 16.3459 12.0761 17.2305C12.0761 18.115 12.7931 18.832 13.6777 18.832H21.739V23.485H13.6777C12.7931 23.485 12.0761 24.2021 12.0761 25.0866C12.0761 25.9712 12.7931 26.6882 13.6777 26.6882H21.739V31.341H13.6777V31.3409C12.7931 31.3409 12.0761 32.0579 12.0761 32.9424C12.0761 33.827 12.7931 34.544 13.6777 34.544H23.3405C23.3497 34.544 23.3588 34.544 23.3679 34.5438C25.8318 34.5017 28.1479 33.5193 29.89 31.7775C30.659 31.0082 31.2918 30.1075 31.7558 29.1282L63.895 30.6741C64.0365 30.685 64.1749 30.6905 64.3203 30.6908C65.8173 30.6903 67.2243 30.1073 68.2821 29.0494C69.3406 27.991 69.9237 26.5838 69.9237 25.0869C69.9237 21.997 67.4099 19.4831 64.3248 19.4831ZM66.0175 26.7843C65.5175 27.2841 64.8367 27.5378 64.1288 27.4793C64.1107 27.4779 64.0923 27.4766 64.0742 27.4758L30.7676 25.8738C30.0429 25.8384 29.3847 26.296 29.1646 26.9878C28.8637 27.9331 28.3313 28.8062 27.625 29.5124C26.868 30.2693 25.9471 30.8093 24.9421 31.0982V19.0747C26.9179 19.6424 28.524 21.1597 29.1643 23.183C29.3835 23.876 30.0434 24.3348 30.7683 24.2994L64.0742 22.6974C64.0908 22.6966 64.1073 22.6956 64.124 22.6942C64.1951 22.6886 64.2587 22.6862 64.3203 22.686C65.644 22.686 66.7209 23.7631 66.7209 25.0868C66.7209 25.728 66.4711 26.3307 66.0175 26.7843Z" fill="black"/>
<path d="M77.3555 58.252H76.2233L73.0819 44.8179C72.1025 40.6303 68.4149 37.7057 64.1144 37.7057H17.8854C13.5849 37.7057 9.89734 40.6303 8.91798 44.8181L5.77652 58.252H4.64453C3.75999 58.252 3.04297 58.969 3.04297 59.8535C3.04297 60.7381 3.75999 61.4551 4.64453 61.4551H5.77764L8.91814 74.8879C9.8975 79.0755 13.5849 82.0001 17.8854 82.0001H64.1144C68.4151 82.0001 72.1025 79.0755 73.0819 74.8879L76.2241 61.4549H77.3555C78.2399 61.4549 78.957 60.7379 78.957 59.8534C78.957 58.969 78.2399 58.252 77.3555 58.252ZM9.66879 55.6744H58.2099C59.0943 55.6744 59.8115 54.9574 59.8115 54.0729C59.8115 53.1883 59.0943 52.4713 58.2099 52.4713H10.4178L12.037 45.5474C12.6757 42.8163 15.0806 40.9088 17.8854 40.9088H64.1144C66.9192 40.9088 69.3241 42.8163 69.963 45.5473L72.9339 58.2518H50.6896H31.3107H9.06613L9.66879 55.6744ZM49.0881 61.4551L49.0879 63.1835C49.0879 64.7127 47.8438 65.9566 46.3148 65.9566H35.6854C34.1562 65.9566 32.9123 64.7125 32.9123 63.1835V61.4551H49.0881ZM69.963 74.1584C69.3241 76.8895 66.9192 78.797 64.1144 78.797H17.8854C15.0806 78.797 12.6757 76.8895 12.037 74.1585L9.06709 61.4551H29.7091L29.709 63.1835C29.709 66.4789 32.39 69.1597 35.6852 69.1597H46.3146C49.61 69.1597 52.2909 66.4787 52.2909 63.1835V61.4549H72.9344L69.963 74.1584Z" fill="black"/>
<path d="M65.7871 53.7596C65.7662 53.6571 65.736 53.5562 65.6959 53.4601C65.6559 53.364 65.6061 53.2711 65.5486 53.183C65.4909 53.0965 65.4237 53.0132 65.35 52.9396C65.2763 52.8659 65.193 52.7986 65.1064 52.741C65.0199 52.6833 64.9254 52.6335 64.8295 52.5935C64.7334 52.5534 64.6325 52.523 64.53 52.5022C64.3234 52.4605 64.1104 52.4605 63.9038 52.5022C63.8013 52.523 63.702 52.5534 63.6043 52.5935C63.5082 52.6335 63.4153 52.6832 63.3288 52.741C63.2407 52.7986 63.1591 52.8659 63.0854 52.9396C63.0117 53.0132 62.9444 53.0965 62.8852 53.183C62.8277 53.2711 62.7779 53.364 62.7378 53.4601C62.6978 53.5562 62.6675 53.6571 62.6467 53.7596C62.6259 53.8637 62.6163 53.9678 62.6163 54.0719C62.6163 54.1776 62.6261 54.2817 62.6467 54.3858C62.6675 54.4883 62.6978 54.5892 62.7378 54.6853C62.7779 54.7814 62.8277 54.8742 62.8852 54.9623C62.9444 55.0488 63.0117 55.1321 63.0854 55.2058C63.1591 55.2794 63.2409 55.3467 63.3288 55.4044C63.4153 55.462 63.5082 55.5117 63.6043 55.5517C63.702 55.5917 63.8013 55.6222 63.9038 55.643C64.0079 55.6638 64.112 55.6734 64.2177 55.6734C64.3218 55.6734 64.4277 55.6638 64.53 55.643C64.6325 55.6222 64.7334 55.5917 64.8295 55.5517C64.9256 55.5117 65.0199 55.462 65.1064 55.4044C65.1929 55.3467 65.2763 55.2794 65.35 55.2058C65.4237 55.1321 65.4909 55.0488 65.5486 54.9623C65.6061 54.8742 65.6559 54.7814 65.6959 54.6853C65.736 54.5892 65.7662 54.4883 65.7871 54.3858C65.8079 54.2817 65.8191 54.1776 65.8191 54.0719C65.8191 53.9678 65.8079 53.8637 65.7871 53.7596Z" fill="black"/>
</g>
<defs>
<clipPath id="clip0">
<rect width="82" height="82" fill="white"/>
</clipPath>
</defs>
</svg>
