<svg width="22" height="22" viewBox="0 0 22 22" fill="none" xmlns="http://www.w3.org/2000/svg">
<path fill-rule="evenodd" clip-rule="evenodd" d="M11 22C17.0751 22 22 17.0751 22 11C22 4.92487 17.0751 0 11 0C4.92487 0 0 4.92487 0 11C0 17.0751 4.92487 22 11 22ZM12.1301 11.413V8.94213C12.1263 8.80736 12.0768 8.67787 11.9897 8.575C11.9025 8.47213 11.7829 8.40201 11.6506 8.3762C11.404 8.33903 10.2623 8.33904 9.80715 8.358C9.66951 8.3668 9.53542 8.40525 9.41404 8.47073C9.29265 8.5362 9.18685 8.62713 9.1039 8.73731C9.43681 8.88931 9.70125 9.15972 9.84581 9.49593V11.1497C9.86808 11.2678 9.84279 11.3899 9.77543 11.4893C9.70807 11.5888 9.60411 11.6576 9.48622 11.6808C9.16992 11.6808 8.61579 10.6878 8.40477 10.3097C8.37893 10.2634 8.35824 10.2264 8.34375 10.2014C8.26865 10.0723 8.09717 9.60051 7.95209 9.20139C7.84072 8.895 7.74491 8.63142 7.7202 8.59847C7.65726 8.49199 7.56474 8.40609 7.45391 8.35117H5.48147C5.36813 8.35117 5.35103 8.41895 5.32525 8.5211C5.32066 8.53929 5.31579 8.55857 5.31006 8.57875C5.38222 9.30741 5.6154 10.0109 5.99279 10.6384C6.62548 11.9023 7.98494 13.883 9.17901 14.6242C9.84195 15.0302 10.6136 15.2228 11.3896 15.1757C11.4921 15.1809 11.5946 15.165 11.6907 15.1291C11.7869 15.0933 11.8747 15.0381 11.9487 14.9671C12.0936 14.7035 12.1565 14.4026 12.1293 14.103C12.1194 13.6706 12.3356 13.6592 12.4494 13.6592C12.4994 13.6546 12.5498 13.6621 12.5962 13.6813C12.6426 13.7005 12.6836 13.7306 12.7157 13.7692C12.7484 13.8019 12.8449 13.9091 12.9644 14.0418C13.1917 14.2941 13.502 14.6386 13.6139 14.738C13.8237 14.9275 14.0692 15.0732 14.3361 15.1666H16.1128C16.2532 15.1761 16.3923 15.1342 16.504 15.0486C16.6157 14.963 16.6924 14.8396 16.7197 14.7016C16.6912 14.5397 16.6191 14.3886 16.5111 14.2646C16.3965 14.1508 15.1706 12.8013 15.0189 12.6298C14.8944 12.4983 14.812 12.3327 14.7822 12.1541C14.8091 12.003 14.8706 11.8603 14.962 11.7369C15.0378 11.6413 16.502 9.28199 16.6727 8.90268C16.7073 8.85407 16.729 8.79748 16.7358 8.73819C16.7425 8.6789 16.7342 8.61885 16.7115 8.56368C16.6887 8.5085 16.6523 8.45998 16.6057 8.42269C16.5592 8.38539 16.5039 8.36052 16.4451 8.35041H14.2618C14.1583 8.35743 14.0602 8.39913 13.9834 8.46876C13.7394 8.61827 13.5447 8.83616 13.4235 9.09537C13.3359 9.27158 13.2064 9.68998 13.0671 10.1399C12.843 10.8638 12.5935 11.6694 12.4532 11.6792C12.4136 11.6897 12.3722 11.6906 12.3322 11.6818C12.2922 11.6731 12.255 11.6549 12.2234 11.6289C12.1918 11.6029 12.1669 11.5697 12.1507 11.5322C12.1344 11.4947 12.1274 11.4538 12.1301 11.413Z" fill="white"/>
</svg>
